<?xml version="1.0" encoding="utf-8"?>
<!-- Generator: Adobe Illustrator 24.1.0, SVG Export Plug-In . SVG Version: 6.00 Build 0)  -->
<svg version="1.1" xmlns="http://www.w3.org/2000/svg" xmlns:xlink="http://www.w3.org/1999/xlink" x="0px" y="0px"
	 viewBox="0 0 100 125" style="enable-background:new 0 0 100 125;" xml:space="preserve">
<style type="text/css">
	.st0{fill:#1406CE;}
</style>
<g id="Layer_2">
</g>
<g id="Layer_1">
	<path class="st0" d="M88.5,51.1c0-19.5-15.8-35.4-35.4-35.4h-6.2c-19.5,0-35.4,15.8-35.4,35.4l-0.9,46.2v0.3c0,4.5,3.5,8.1,7.9,8.1
		c4.3,0,7.9-3.6,7.9-8.1c0-4.5,3.5-8.1,7.9-8.1s7.9,3.6,7.9,8.1c0,4.5,3.5,8.1,7.9,8.1s7.9-3.6,7.9-8.1c0-4.5,3.5-8.1,7.9-8.1
		s7.9,3.6,7.9,8.1c0,4.5,3.5,8.1,7.9,8.1c4.3,0,7.9-3.6,7.9-8.1v-0.3L88.5,51.1z M24.7,65.8c-6,0-10.9-6.7-10.9-15s4.9-15,10.9-15
		c6,0,10.9,6.7,10.9,15S30.8,65.8,24.7,65.8z M53.3,65.8c-6,0-10.9-6.7-10.9-15s4.9-15,10.9-15s10.9,6.7,10.9,15
		S59.3,65.8,53.3,65.8z"/>
	<path class="st0" d="M26.9,58c0,3.4-2.3,6.1-5.2,6.1s-5.2-2.7-5.2-6.1s2.3-6.1,5.2-6.1C24.6,51.9,26.9,54.6,26.9,58z"/>
	<path class="st0" d="M50.3,51.9c-2.9,0-5.2,2.7-5.2,6.1c0,3.4,2.3,6.1,5.2,6.1s5.2-2.7,5.2-6.1C55.5,54.6,53.2,51.9,50.3,51.9z"/>
</g>
</svg>
