<?xml version="1.0" encoding="utf-8"?>
<!-- Generator: Adobe Illustrator 24.1.0, SVG Export Plug-In . SVG Version: 6.00 Build 0)  -->
<svg version="1.1" xmlns="http://www.w3.org/2000/svg" xmlns:xlink="http://www.w3.org/1999/xlink" x="0px" y="0px"
	 viewBox="0 0 100 125" style="enable-background:new 0 0 100 125;" xml:space="preserve">
<style type="text/css">
	.st0{fill:#E210C9;}
</style>
<g id="Layer_2">
</g>
<g id="Layer_1">
	<path class="st0" d="M88.5,40.4C88.5,20.9,72.6,5,53.1,5h-6.2C27.3,5,11.5,20.9,11.5,40.4l-0.9,46.2v0.3c0,4.5,3.5,8.1,7.9,8.1
		c4.3,0,7.9-3.6,7.9-8.1c0-4.5,3.5-8.1,7.9-8.1s7.9,3.6,7.9,8.1c0,4.5,3.5,8.1,7.9,8.1s7.9-3.6,7.9-8.1c0-4.5,3.5-8.1,7.9-8.1
		s7.9,3.6,7.9,8.1c0,4.5,3.5,8.1,7.9,8.1c4.3,0,7.9-3.6,7.9-8.1v-0.3L88.5,40.4z M35.7,55.1c-6,0-10.9-6.7-10.9-15s4.9-15,10.9-15
		c6,0,10.9,6.7,10.9,15S41.8,55.1,35.7,55.1z M64.3,55.1c-6,0-10.9-6.7-10.9-15s4.9-15,10.9-15c6,0,10.9,6.7,10.9,15
		S70.3,55.1,64.3,55.1z"/>
	<path class="st0" d="M45.9,40.2c0,3.4-2.3,6.1-5.2,6.1c-2.9,0-5.2-2.7-5.2-6.1s2.3-6.1,5.2-6.1C43.6,34.2,45.9,36.9,45.9,40.2z"/>
	<path class="st0" d="M69.3,34.2c-2.9,0-5.2,2.7-5.2,6.1c0,3.4,2.3,6.1,5.2,6.1s5.2-2.7,5.2-6.1C74.5,36.9,72.2,34.2,69.3,34.2z"/>
</g>
</svg>
