<?xml version="1.0" encoding="utf-8"?>
<!-- Generator: Adobe Illustrator 24.1.0, SVG Export Plug-In . SVG Version: 6.00 Build 0)  -->
<svg version="1.1" id="Layer_1" xmlns="http://www.w3.org/2000/svg" xmlns:xlink="http://www.w3.org/1999/xlink" x="0px" y="0px"
	 viewBox="0 0 100 125" style="enable-background:new 0 0 100 125;" xml:space="preserve">
<style type="text/css">
	.st0{fill:#FCEF03;}
</style>
<path class="st0" d="M20.1,59.3c0.4,0,0.8-0.1,1.3-0.1C25.3,71.2,36.6,80,50,80s24.7-8.8,28.6-20.9c0.4,0.1,0.8,0.1,1.3,0.1
	c4.7,0,8.4-4.8,8.4-10.7s-3.8-10.7-8.4-10.7c-0.8,0-1.5,0.1-2.2,0.4C73.4,28.1,63.8,20.9,52.4,20c-4.5,0.3-8.4,3.1-9,6.9
	c-0.3,1.4,0.1,2.8,1,4.1c1.2,1.6,3.2,2.7,5.5,3c3.3,0.4,6.4-1.4,6.8-4.1c0.1-0.8-0.1-1.6-0.6-2.3c-0.7-1-1.9-1.6-3.3-1.8
	c-1.9-0.2-3.7,0.8-4,2.3c-0.1,0.5,0.1,1,0.3,1.2c0.4,0.5,1.1,0.9,1.8,1c1,0.1,2-0.4,2.1-1.2c0-0.2,0-0.3-0.1-0.5
	c-0.2-0.3-0.5-0.4-0.9-0.5c-0.5-0.1-0.9-0.6-0.9-1.1c0.1-0.5,0.6-0.9,1.1-0.9c0.9,0.1,1.8,0.6,2.3,1.3c0.4,0.6,0.6,1.3,0.5,2
	c-0.3,1.8-2.3,3.1-4.4,2.8c-1.3-0.2-2.5-0.8-3.2-1.8c-0.6-0.8-0.8-1.8-0.7-2.8c0.5-2.5,3.2-4.3,6.2-3.9c1.9,0.2,3.6,1.2,4.6,2.6
	c0.8,1.1,1.2,2.5,0.9,3.9c-0.6,3.4-4,5.8-7.9,5.8c-0.4,0-0.8,0-1.1-0.1c-2.8-0.3-5.3-1.7-6.9-3.8c-1.2-1.7-1.7-3.7-1.4-5.6
	c0.5-2.6,2.1-4.8,4.3-6.3c-10.5,1.5-19.3,8.5-23.4,18c-0.7-0.2-1.4-0.4-2.2-0.4c-4.7,0-8.4,4.8-8.4,10.7
	C11.7,54.5,15.5,59.3,20.1,59.3z M61.6,38.2c3,0,5.4,2.4,5.4,5.4S64.6,49,61.6,49s-5.4-2.4-5.4-5.4C56.2,40.6,58.6,38.2,61.6,38.2z
	 M50,66.2c4.3,0,8-2.2,8-4.7c0-1.1,0.9-2,2-2s2,0.9,2,2c0,4.9-5.3,8.7-12,8.7s-12-3.8-12-8.7c0-1.1,0.9-2,2-2s2,0.9,2,2
	C42,64,45.7,66.2,50,66.2z M38.4,38.2c3,0,5.4,2.4,5.4,5.4S41.4,49,38.4,49S33,46.6,33,43.6S35.4,38.2,38.4,38.2z"/>
</svg>
